%FSLAX44Y44*%
%MOMM*%
G71*
G01*
G75*
G04 Layer_Color=16711935*
%ADD10R,1.8000X0.2300*%
%ADD11O,0.2300X1.8000*%
%ADD12R,0.2300X1.8000*%
%ADD13C,1.0000*%
%ADD14C,0.2540*%
%ADD15C,0.5000*%
%ADD16O,2.6416X1.3208*%
%ADD17C,1.5000*%
%ADD18R,1.5000X1.5000*%
%ADD19R,1.5000X1.5000*%
%ADD20C,2.8000*%
%ADD21R,2.8000X2.8000*%
%ADD22C,1.4000*%
%ADD23C,1.6256*%
%ADD24C,1.7000*%
%ADD25R,1.7000X1.7000*%
%ADD26C,1.8000*%
%ADD27C,3.0000*%
%ADD28R,1.3500X1.3500*%
%ADD29C,1.3500*%
%ADD30R,2.0000X2.0000*%
%ADD31C,2.0000*%
%ADD32C,2.5000*%
%ADD33R,1.8000X1.8000*%
%ADD34C,1.8000*%
%ADD35R,1.7780X1.7780*%
%ADD36C,1.7780*%
%ADD37R,2.0000X2.0000*%
%ADD38C,1.2000*%
%ADD39R,1.2000X1.2000*%
%ADD40C,1.2700*%
%ADD41C,3.3000*%
%ADD42C,0.1270*%
%ADD43C,0.2500*%
%ADD44C,0.2000*%
%ADD45C,0.1524*%
%ADD46C,0.1500*%
%ADD47R,0.8000X5.6000*%
%ADD48R,2.8000X0.8000*%
%ADD49R,2.0032X0.4332*%
%ADD50O,0.4332X2.0032*%
%ADD51R,0.4332X2.0032*%
%ADD52O,2.8448X1.5240*%
%ADD53C,1.7032*%
%ADD54R,1.7032X1.7032*%
%ADD55R,1.7032X1.7032*%
%ADD56C,3.0032*%
%ADD57R,3.0032X3.0032*%
%ADD58C,1.6032*%
%ADD59C,1.8288*%
%ADD60C,0.2032*%
%ADD61C,1.9032*%
%ADD62R,1.9032X1.9032*%
%ADD63C,2.0032*%
%ADD64C,3.2032*%
%ADD65R,1.5532X1.5532*%
%ADD66C,1.5532*%
%ADD67R,2.2032X2.2032*%
%ADD68C,2.2032*%
%ADD69C,2.7032*%
%ADD70R,2.0032X2.0032*%
%ADD71C,2.0032*%
%ADD72R,1.9812X1.9812*%
%ADD73C,1.9812*%
%ADD74R,2.2032X2.2032*%
%ADD75C,1.4032*%
%ADD76R,1.4032X1.4032*%
%ADD77C,1.4732*%
%ADD78C,3.5032*%
%ADD79C,0.1000*%
D79*
X1227620Y573200D02*
Y580100D01*
X1217420Y573200D02*
Y580100D01*
X1251420Y573200D02*
Y580100D01*
X1261620Y573200D02*
Y580100D01*
X1278620Y573200D02*
Y620100D01*
X1268420Y573200D02*
Y620100D01*
X1278620Y566900D02*
Y573200D01*
X1268420Y566900D02*
Y573200D01*
Y566900D02*
X1278620D01*
X1268420Y573200D02*
X1278620D01*
X1261620Y566900D02*
Y573200D01*
X1251420Y566900D02*
Y573200D01*
Y566900D02*
X1261620D01*
X1251420Y573200D02*
X1261620D01*
X1210620Y566900D02*
Y573200D01*
X1200420Y566900D02*
Y573200D01*
Y566900D02*
X1210620D01*
X1200420Y573200D02*
X1210620D01*
X1227620Y566900D02*
Y573200D01*
X1217420Y566900D02*
Y573200D01*
Y566900D02*
X1227620D01*
X1217420Y573200D02*
X1227620D01*
X1234420D02*
X1244620D01*
X1234420Y566900D02*
X1244620D01*
X1234420D02*
Y573200D01*
X1244620Y566900D02*
Y573200D01*
X1217420Y586400D02*
X1227620D01*
X1217420Y580100D02*
X1227620D01*
X1217420D02*
Y586400D01*
X1227620Y580100D02*
Y586400D01*
X1251420D02*
X1261620D01*
X1251420Y580100D02*
X1261620D01*
X1251420D02*
Y586400D01*
X1261620Y580100D02*
Y586400D01*
X1234420Y620100D02*
Y626400D01*
X1244620Y620100D02*
Y626400D01*
X1234420D02*
X1244620D01*
X1234420Y620100D02*
X1244620D01*
X1268420D02*
X1278620D01*
X1268420Y626400D02*
X1278620D01*
Y620100D02*
Y626400D01*
X1268420Y620100D02*
Y626400D01*
X1200420Y620100D02*
X1210620D01*
X1200420Y626400D02*
X1210620D01*
Y620100D02*
Y626400D01*
X1200420Y620100D02*
Y626400D01*
X1234420Y573200D02*
Y620100D01*
X1244620Y573200D02*
Y620100D01*
X1200420Y573200D02*
Y620100D01*
X1210620Y573200D02*
Y620100D01*
X1186520Y587950D02*
X1292520D01*
X1186520Y553950D02*
X1292520D01*
X1186520Y540950D02*
X1292520D01*
X1186520D02*
Y587950D01*
X1292520Y540950D02*
Y587950D01*
M02*
