M48
;Layer_Color=9474304
;FILE_FORMAT=4:4
METRIC,LZ
;TYPE=PLATED
T1F00S00C0.7000
T2F00S00C0.7112
T3F00S00C0.8000
T4F00S00C0.8128
T5F00S00C0.8500
T6F00S00C0.9000
T7F00S00C0.9906
T8F00S00C1.0000
T9F00S00C1.1000
T10F00S00C1.2000
T11F00S00C1.5000
T12F00S00C1.7000
T13F00S00C1.8500
T14F00S00C2.0000
T15F00S00C3.3000
%
T01
X0136398Y0054975
Y0060595
T02
X0104394Y003429
X0106426Y0035687
X0100838Y005334
X0099949Y0058547
X0100457Y0060198
X0100076Y0062484
X0097663Y00635
Y0061468
X0098171Y0059055
X0100711Y0067691
X0100203Y0070358
X0100584Y0073533
X010287Y0074803
X0094996Y0075438
X0094857Y0072644
X0089154Y0067818
X00889Y0062865
X0088138Y0056769
X0090297Y0055626
X0076327Y0058293
X0071755Y0071882
X0056007Y0078105
X0054102Y0076581
X0047244Y0055245
X0041402Y0049149
X0043815Y0084963
X0059944Y0080264
X0064008Y0086868
X00639445Y00929005
X0067564Y0096012
X0069088Y0098552
X0074168Y009398
X0097536Y0092456
X0098806Y0097663
X0104013Y0094107
X0105664Y0089662
X0107061Y0086868
X010922Y0085598
X0108458Y0082423
X0094615Y0080264
T03
X0087249Y0032639
Y0037719
X012827Y0043688
X013335
X0114173Y0054102
X0109093
X0112522Y0060238
X0112522Y0065238
X0094869Y0049149
Y0045339
X0094742Y004191
X0089662
X0089789Y0045339
Y0049149
X0082042Y0046863
Y0054483
X0079121
X0076581Y005461
X0073533
X0070739
Y004699
X0073533
X0076581
X0079121Y0046863
X0079247Y0102461
X0076707
X0074167
X0071627
X0069087
X0066547
X0064007
X0061467
X0058927
X0056387
X0053847
X0051307
X0048767
X0046227
X0081787
X0084327
T04
X004953Y0031115
Y0033655
Y0036195
Y0038735
X006731
Y0036195
Y0033655
Y0031115
Y0041275
Y0043815
Y0046355
Y0048895
X004953
Y0046355
Y0043815
Y0041275
T05
X0130302Y0032385
X0137922
X0058928Y0047117
Y0054737
T06
X0034671Y003048
X0037211
X0039751
X0092075Y0032639
X0094615
X0097155
X0099695
X0034417Y0055245
Y0057785
X0034544Y0074549
Y0077089
Y0079629
Y0082169
Y0084709
X0122428Y0104013
X0124968
X0127508
X0130048
X0132588
X0135128
X0138557Y0096774
Y0094234
T07
X013335Y0037084
X013589
X0043815Y0051943
X0041275
T08
X008115Y0060565
Y0065165
X008775
Y0060565
X007775
Y0065165
X007115
X006775
Y0060565
X007115
X006115
X005775
Y0065165
X006115
X005115
X004775
Y0060565
X005115
X004115
Y0065165
T09
X0122252Y0058325
X0125652
X0123952Y0062325
X0127352
X0120552
T10
X01228Y0066652
X0127
X01312
X01354
Y0077112
X01312
X0127
X01228
T11
X0074328Y0035052
X0079328
X0076828Y0040052
T12
X0130578Y0049149
X0111738
T13
X0125603Y0086358
Y0091058
Y0095758
T14
X0114427Y0033782
Y0042782
T15
X0139636Y0047521
X0115727Y0071461
X0040727
X0034036Y0047521
Y0103886
X0040727Y0102461
X0115727
X0139636Y0104521
M30
