%FSLAX44Y44*%
%MOMM*%
G71*
G01*
G75*
G04 Layer_Color=255*
%ADD10R,1.8000X0.2300*%
%ADD11O,0.2300X1.8000*%
%ADD12R,0.2300X1.8000*%
%ADD13C,1.0000*%
%ADD14C,0.2540*%
%ADD15C,0.5000*%
%ADD16O,2.6416X1.3208*%
%ADD17C,1.5000*%
%ADD18R,1.5000X1.5000*%
%ADD19R,1.5000X1.5000*%
%ADD20C,2.8000*%
%ADD21R,2.8000X2.8000*%
%ADD22C,1.4000*%
%ADD23C,1.6256*%
%ADD24C,1.7000*%
%ADD25R,1.7000X1.7000*%
%ADD26C,1.8000*%
%ADD27C,3.0000*%
%ADD28R,1.3500X1.3500*%
%ADD29C,1.3500*%
%ADD30R,2.0000X2.0000*%
%ADD31C,2.0000*%
%ADD32C,2.5000*%
%ADD33R,1.8000X1.8000*%
%ADD34C,1.8000*%
%ADD35R,1.7780X1.7780*%
%ADD36C,1.7780*%
%ADD37R,2.0000X2.0000*%
%ADD38C,1.2000*%
%ADD39R,1.2000X1.2000*%
%ADD40C,1.2700*%
%ADD41C,3.3000*%
D16*
X673100Y311150D02*
D03*
Y336550D02*
D03*
Y361950D02*
D03*
Y387350D02*
D03*
Y412750D02*
D03*
Y438150D02*
D03*
Y463550D02*
D03*
Y488950D02*
D03*
X495300D02*
D03*
Y463550D02*
D03*
Y438150D02*
D03*
Y412750D02*
D03*
Y387350D02*
D03*
Y361950D02*
D03*
Y336550D02*
D03*
Y311150D02*
D03*
D17*
X345440Y847090D02*
D03*
Y821690D02*
D03*
Y796290D02*
D03*
Y770890D02*
D03*
X372110Y304800D02*
D03*
X346710D02*
D03*
X1325880Y1040130D02*
D03*
X1300480D02*
D03*
X1275080D02*
D03*
X1249680D02*
D03*
X1224280D02*
D03*
X344170Y577850D02*
D03*
X1385570Y967740D02*
D03*
X971550Y326390D02*
D03*
X946150D02*
D03*
X920750D02*
D03*
D18*
X345440Y745490D02*
D03*
X344170Y552450D02*
D03*
X1385570Y942340D02*
D03*
D19*
X397510Y304800D02*
D03*
X1351280Y1040130D02*
D03*
X996950Y326390D02*
D03*
D20*
X1305780Y491490D02*
D03*
D21*
X1117380D02*
D03*
D22*
X1379220Y323850D02*
D03*
X1303020D02*
D03*
X589280Y547370D02*
D03*
Y471170D02*
D03*
D23*
X1282700Y436880D02*
D03*
X1333500D02*
D03*
X707390Y546100D02*
D03*
Y469900D02*
D03*
X735330D02*
D03*
Y546100D02*
D03*
X765810Y469900D02*
D03*
Y546100D02*
D03*
X791210Y468630D02*
D03*
Y544830D02*
D03*
X820420Y468630D02*
D03*
Y544830D02*
D03*
X872490Y326390D02*
D03*
Y377190D02*
D03*
X1090930Y541020D02*
D03*
X1141730D02*
D03*
X896620Y419100D02*
D03*
X947420D02*
D03*
X948690Y491490D02*
D03*
X897890D02*
D03*
X948690Y453390D02*
D03*
X897890D02*
D03*
D24*
X1205520Y623250D02*
D03*
X1222520Y583250D02*
D03*
X1239520Y623250D02*
D03*
X1256520Y583250D02*
D03*
D25*
X1273520Y623250D02*
D03*
D26*
X577500Y605650D02*
D03*
Y651650D02*
D03*
X511500Y605650D02*
D03*
Y651650D02*
D03*
X677500Y605650D02*
D03*
Y651650D02*
D03*
X611500Y605650D02*
D03*
Y651650D02*
D03*
X777500Y605650D02*
D03*
Y651650D02*
D03*
X711500Y605650D02*
D03*
Y651650D02*
D03*
X877500Y605650D02*
D03*
Y651650D02*
D03*
X811500Y605650D02*
D03*
Y651650D02*
D03*
X477500Y605650D02*
D03*
Y651650D02*
D03*
X411500Y605650D02*
D03*
Y651650D02*
D03*
D27*
X1256030Y957580D02*
D03*
Y863580D02*
D03*
Y910580D02*
D03*
D28*
X1125220Y652380D02*
D03*
D29*
X1125220Y602380D02*
D03*
D30*
X1228000Y771120D02*
D03*
X1312000Y666520D02*
D03*
X1354000Y771120D02*
D03*
X1270000Y666520D02*
D03*
D31*
X1228000D02*
D03*
X1312000Y771120D02*
D03*
X1354000Y666520D02*
D03*
X1270000Y771120D02*
D03*
D32*
X1144270Y427820D02*
D03*
Y337820D02*
D03*
X768280Y400520D02*
D03*
X793280Y350520D02*
D03*
D33*
X462270Y1024610D02*
D03*
D34*
X487670D02*
D03*
X513070D02*
D03*
X538470D02*
D03*
X563870D02*
D03*
X589270D02*
D03*
X614670D02*
D03*
X640070D02*
D03*
X665470D02*
D03*
X690870D02*
D03*
X716270D02*
D03*
X741670D02*
D03*
X767070D02*
D03*
X792470D02*
D03*
X817870D02*
D03*
X843270D02*
D03*
D35*
X1358900Y370840D02*
D03*
X438150Y519430D02*
D03*
D36*
X1333500Y370840D02*
D03*
X412750Y519430D02*
D03*
D37*
X743280Y350520D02*
D03*
D38*
X1363980Y549750D02*
D03*
D39*
Y605950D02*
D03*
M02*
