%FSLAX44Y44*%
%MOMM*%
G71*
G01*
G75*
G04 Layer_Physical_Order=2*
G04 Layer_Color=16711680*
%ADD10R,1.8000X0.2300*%
%ADD11O,0.2300X1.8000*%
%ADD12R,0.2300X1.8000*%
%ADD13C,1.0000*%
%ADD14C,0.2540*%
%ADD15C,0.5000*%
%ADD16O,2.6416X1.3208*%
%ADD17C,1.5000*%
%ADD18R,1.5000X1.5000*%
%ADD19R,1.5000X1.5000*%
%ADD20C,2.8000*%
%ADD21R,2.8000X2.8000*%
%ADD22C,1.4000*%
%ADD23C,1.6256*%
%ADD24C,1.7000*%
%ADD25R,1.7000X1.7000*%
%ADD26C,1.8000*%
%ADD27C,3.0000*%
%ADD28R,1.3500X1.3500*%
%ADD29C,1.3500*%
%ADD30R,2.0000X2.0000*%
%ADD31C,2.0000*%
%ADD32C,2.5000*%
%ADD33R,1.8000X1.8000*%
%ADD34C,1.8000*%
%ADD35R,1.7780X1.7780*%
%ADD36C,1.7780*%
%ADD37R,2.0000X2.0000*%
%ADD38C,1.2000*%
%ADD39R,1.2000X1.2000*%
%ADD40C,1.2700*%
%ADD41C,3.3000*%
D13*
X857250Y327660D02*
X919480D01*
X346710Y304800D02*
Y377190D01*
X388620Y419100D01*
Y466090D01*
X414020Y491490D01*
X848360Y351790D02*
Y445770D01*
Y336550D02*
Y351790D01*
X794550D02*
X848360D01*
X793280Y350520D02*
X794550Y351790D01*
X1312000Y771120D02*
Y843190D01*
X1292860Y862330D02*
X1312000Y843190D01*
X1257280Y862330D02*
X1292860D01*
X1256030Y863580D02*
X1257280Y862330D01*
X1290320Y957580D02*
X1300480Y947420D01*
X1256030Y957580D02*
X1290320D01*
X1300480Y896620D02*
Y947420D01*
Y896620D02*
X1354000Y843100D01*
Y771120D02*
Y843100D01*
X677500Y605650D02*
X711500D01*
X577500D02*
X611500D01*
X511500Y594050D02*
Y605650D01*
X501650Y584200D02*
X511500Y594050D01*
X432950Y584200D02*
X501650D01*
X411500Y605650D02*
X432950Y584200D01*
X845820Y573970D02*
X877500Y605650D01*
X919480Y327660D02*
X920750Y326390D01*
X872490Y377190D02*
X980440D01*
X996950Y360680D01*
Y326390D02*
Y360680D01*
X998220Y468630D02*
Y511810D01*
X982980Y453390D02*
X998220Y468630D01*
X845820Y542290D02*
Y573970D01*
Y542290D02*
X861060Y527050D01*
X948690Y453390D02*
X982980D01*
X948690Y448310D02*
Y453390D01*
Y448310D02*
X963930Y433070D01*
Y411480D02*
Y433070D01*
X955040Y402590D02*
X963930Y411480D01*
X913130Y402590D02*
X955040D01*
X896620Y419100D02*
X913130Y402590D01*
X877570Y419100D02*
X896620D01*
X848360Y336550D02*
X857250Y327660D01*
X848360Y445770D02*
X849630Y447040D01*
X877570Y419100D01*
X589280Y331470D02*
Y471170D01*
X568960Y311150D02*
X589280Y331470D01*
X495300Y311150D02*
X568960D01*
X1003300Y516890D02*
X1073150D01*
X998220Y511810D02*
X1003300Y516890D01*
X1073150D02*
X1090930Y534670D01*
X848360Y514350D02*
X861060Y527050D01*
X848360Y445770D02*
Y514350D01*
X861060Y527050D02*
X982980D01*
X998220Y511810D01*
D14*
X334010Y796290D02*
X345440D01*
X318770Y811530D02*
X334010Y796290D01*
X318770Y811530D02*
Y878840D01*
X328930Y889000D01*
X523240D01*
X556260Y855980D01*
X1092200D01*
X345440Y821690D02*
X405130D01*
X414020Y830580D01*
Y861060D01*
X422910Y869950D01*
X515620D01*
X561340Y824230D01*
X1084580D01*
X438150Y849630D02*
X511810D01*
X521970Y839470D01*
Y756920D02*
Y839470D01*
Y756920D02*
X544830Y734060D01*
X940950D02*
X948570Y726440D01*
X544830Y734060D02*
X940950D01*
X975360Y615950D02*
X976630Y614680D01*
X673100Y336550D02*
X695960D01*
X701040Y331470D01*
Y309880D02*
Y331470D01*
Y309880D02*
X709930Y300990D01*
X1054100D01*
X1064260Y311150D01*
Y356870D01*
X1015492Y314452D02*
X1043940Y342900D01*
X718058Y314452D02*
X1015492D01*
X716280Y316230D02*
X718058Y314452D01*
X716280Y316230D02*
Y347980D01*
X702310Y361950D02*
X716280Y347980D01*
X673100Y361950D02*
X702310D01*
X980440Y552450D02*
Y590550D01*
X991870Y539750D02*
X998220Y533400D01*
X1008380D01*
X650240Y463550D02*
X673100D01*
X645160Y458470D02*
X650240Y463550D01*
X792010Y349250D02*
X793280Y350520D01*
X770890Y349250D02*
X792010D01*
X753110Y367030D02*
X770890Y349250D01*
X753110Y367030D02*
Y389890D01*
X745490Y397510D02*
X753110Y389890D01*
X684272Y397510D02*
X745490D01*
X684018Y397764D02*
X684272Y397510D01*
X658876Y397764D02*
X684018D01*
X645160Y411480D02*
X658876Y397764D01*
X645160Y411480D02*
Y458470D01*
X577500Y651650D02*
X609390Y619760D01*
X881380Y567690D02*
X923290D01*
X944880Y546100D01*
X891540Y678180D02*
X1004570D01*
X640080Y868680D02*
X1070610D01*
X639445Y929005D02*
X661670Y906780D01*
X1046480D01*
X1056640Y896620D01*
X675640Y960120D02*
X1026160D01*
X1040130Y946150D01*
Y941070D02*
Y946150D01*
X690880Y985520D02*
X699770Y976630D01*
X988060D01*
X717550Y718820D02*
X732790Y703580D01*
X1002030D01*
X741680Y939800D02*
X756920Y924560D01*
X975360D01*
X541020Y765810D02*
X552460Y754370D01*
X566420Y774700D02*
X1026160D01*
X560070Y781050D02*
X566420Y774700D01*
X949950Y754370D02*
X949960Y754380D01*
X552460Y754370D02*
X949950D01*
X599440Y802640D02*
X946150D01*
X974090Y546100D02*
X980440Y552450D01*
X944880Y546100D02*
X974090D01*
X1021080Y640080D02*
Y720090D01*
X1005840Y735330D02*
X1021080Y720090D01*
X981710Y640080D02*
X1021080D01*
X976630Y635000D02*
X981710Y640080D01*
X1026160Y774700D02*
X1041400Y759460D01*
X999490Y585470D02*
X1028700D01*
X1041400Y598170D01*
Y759460D01*
X893208Y638810D02*
X907178Y624840D01*
X1000760D01*
X1003300Y627380D01*
X979170Y613410D02*
X1019810D01*
X1031240Y624840D01*
Y742950D01*
X1028700Y745490D02*
X1031240Y742950D01*
X411500Y651650D02*
X477500D01*
X511500D02*
X577500D01*
X611500D02*
X677500D01*
X711500D02*
X777500D01*
X811500D02*
X877500D01*
X765810Y546100D02*
X767080Y547370D01*
X735330Y546100D02*
Y605790D01*
X721360Y619760D02*
X735330Y605790D01*
X609390Y619760D02*
X721360D01*
X763270Y582930D02*
X765810Y580390D01*
Y546100D02*
Y580390D01*
X777500Y632200D02*
Y651650D01*
Y632200D02*
X791210Y618490D01*
Y544830D02*
Y618490D01*
X889000Y614680D02*
Y628650D01*
Y614680D02*
X901700Y601980D01*
X1004570D01*
X838200Y638810D02*
X893208D01*
X829310Y629920D02*
X838200Y638810D01*
X822960Y571500D02*
X829310Y577850D01*
X812800Y571500D02*
X822960D01*
X808482Y567182D02*
X812800Y571500D01*
X808482Y526542D02*
Y567182D01*
X802640Y520700D02*
X808482Y526542D01*
X734060Y528320D02*
Y544830D01*
X735330Y546100D01*
X829310Y577850D02*
Y629920D01*
X734060Y528320D02*
X741680Y520700D01*
X802640D01*
X932180Y474980D02*
X948690Y491490D01*
X932180Y434340D02*
Y474980D01*
Y434340D02*
X947420Y419100D01*
X897890Y453390D02*
Y491490D01*
X902970Y551180D02*
Y556260D01*
Y551180D02*
X914400Y539750D01*
X991870D01*
X655320Y506730D02*
X673100Y488950D01*
X344170Y552450D02*
X381000D01*
X386080Y547370D01*
Y514350D02*
Y547370D01*
Y514350D02*
X393700Y506730D01*
X655320D01*
X673100Y438150D02*
X678180D01*
Y447298D02*
X690118Y459236D01*
Y502412D01*
X344170Y577850D02*
X346710Y575310D01*
X666750Y525780D02*
X690118Y502412D01*
X346710Y575310D02*
X384810D01*
X454968Y525780D02*
X666750D01*
X448618Y532130D02*
X454968Y525780D01*
X398780Y532130D02*
X448618D01*
X391160Y539750D02*
X398780Y532130D01*
X391160Y539750D02*
Y568960D01*
X384810Y575310D02*
X391160Y568960D01*
X678180Y438150D02*
Y447298D01*
D15*
X345440Y636270D02*
Y745490D01*
Y636270D02*
X429260Y552450D01*
X472440D01*
X1090930Y570630D02*
X1125220Y604920D01*
X843270Y1024610D02*
X1065810D01*
X1097280Y993140D01*
X1261110D02*
X1275080Y1007110D01*
Y1040130D01*
X1112520Y697230D02*
Y957580D01*
X1062990Y1007110D02*
X1112520Y957580D01*
X828040Y1007110D02*
X1062990D01*
X817870Y1017280D02*
X828040Y1007110D01*
X817870Y1031230D02*
X843280Y1056640D01*
X1233170D01*
X1249680Y1040130D01*
X1237000Y863580D02*
X1256030D01*
X1215390Y885190D02*
X1237000Y863580D01*
X1215390Y885190D02*
Y985520D01*
X1221740Y991870D01*
Y993140D01*
X1097280D02*
X1221740D01*
X1261110D01*
X707390Y469900D02*
Y505460D01*
X1125220Y652380D02*
Y684530D01*
X1112520Y697230D02*
X1125220Y684530D01*
Y652380D02*
X1126890D01*
X1141730Y637540D01*
Y541020D02*
Y637540D01*
X676910Y535940D02*
X707390Y505460D01*
X594267Y535330D02*
X594877Y535940D01*
X676910D01*
X493370Y535330D02*
X594267D01*
X477520Y551180D02*
X493370Y535330D01*
X1090930Y541020D02*
Y570630D01*
D16*
X673100Y311150D02*
D03*
Y336550D02*
D03*
Y361950D02*
D03*
Y387350D02*
D03*
Y412750D02*
D03*
Y438150D02*
D03*
Y463550D02*
D03*
Y488950D02*
D03*
X495300D02*
D03*
Y463550D02*
D03*
Y438150D02*
D03*
Y412750D02*
D03*
Y387350D02*
D03*
Y361950D02*
D03*
Y336550D02*
D03*
Y311150D02*
D03*
D17*
X345440Y847090D02*
D03*
Y821690D02*
D03*
Y796290D02*
D03*
Y770890D02*
D03*
X372110Y304800D02*
D03*
X346710D02*
D03*
X1325880Y1040130D02*
D03*
X1300480D02*
D03*
X1275080D02*
D03*
X1249680D02*
D03*
X1224280D02*
D03*
X344170Y577850D02*
D03*
X1385570Y967740D02*
D03*
X971550Y326390D02*
D03*
X946150D02*
D03*
X920750D02*
D03*
D18*
X345440Y745490D02*
D03*
X344170Y552450D02*
D03*
X1385570Y942340D02*
D03*
D19*
X397510Y304800D02*
D03*
X1351280Y1040130D02*
D03*
X996950Y326390D02*
D03*
D20*
X1305780Y491490D02*
D03*
D21*
X1117380D02*
D03*
D22*
X1379220Y323850D02*
D03*
X1303020D02*
D03*
X589280Y547370D02*
D03*
Y471170D02*
D03*
D23*
X1282700Y436880D02*
D03*
X1333500D02*
D03*
X707390Y546100D02*
D03*
Y469900D02*
D03*
X735330D02*
D03*
Y546100D02*
D03*
X765810Y469900D02*
D03*
Y546100D02*
D03*
X791210Y468630D02*
D03*
Y544830D02*
D03*
X820420Y468630D02*
D03*
Y544830D02*
D03*
X872490Y326390D02*
D03*
Y377190D02*
D03*
X1090930Y541020D02*
D03*
X1141730D02*
D03*
X896620Y419100D02*
D03*
X947420D02*
D03*
X948690Y491490D02*
D03*
X897890D02*
D03*
X948690Y453390D02*
D03*
X897890D02*
D03*
D24*
X1205520Y623250D02*
D03*
X1222520Y583250D02*
D03*
X1239520Y623250D02*
D03*
X1256520Y583250D02*
D03*
D25*
X1273520Y623250D02*
D03*
D26*
X577500Y605650D02*
D03*
Y651650D02*
D03*
X511500Y605650D02*
D03*
Y651650D02*
D03*
X677500Y605650D02*
D03*
Y651650D02*
D03*
X611500Y605650D02*
D03*
Y651650D02*
D03*
X777500Y605650D02*
D03*
Y651650D02*
D03*
X711500Y605650D02*
D03*
Y651650D02*
D03*
X877500Y605650D02*
D03*
Y651650D02*
D03*
X811500Y605650D02*
D03*
Y651650D02*
D03*
X477500Y605650D02*
D03*
Y651650D02*
D03*
X411500Y605650D02*
D03*
Y651650D02*
D03*
D27*
X1256030Y957580D02*
D03*
Y863580D02*
D03*
Y910580D02*
D03*
D28*
X1125220Y652380D02*
D03*
D29*
X1125220Y602380D02*
D03*
D30*
X1228000Y771120D02*
D03*
X1312000Y666520D02*
D03*
X1354000Y771120D02*
D03*
X1270000Y666520D02*
D03*
D31*
X1228000D02*
D03*
X1312000Y771120D02*
D03*
X1354000Y666520D02*
D03*
X1270000Y771120D02*
D03*
D32*
X1144270Y427820D02*
D03*
Y337820D02*
D03*
X768280Y400520D02*
D03*
X793280Y350520D02*
D03*
D33*
X462270Y1024610D02*
D03*
D34*
X487670D02*
D03*
X513070D02*
D03*
X538470D02*
D03*
X563870D02*
D03*
X589270D02*
D03*
X614670D02*
D03*
X640070D02*
D03*
X665470D02*
D03*
X690870D02*
D03*
X716270D02*
D03*
X741670D02*
D03*
X767070D02*
D03*
X792470D02*
D03*
X817870D02*
D03*
X843270D02*
D03*
D35*
X1358900Y370840D02*
D03*
X438150Y519430D02*
D03*
D36*
X1333500Y370840D02*
D03*
X412750Y519430D02*
D03*
D37*
X743280Y350520D02*
D03*
D38*
X1363980Y549750D02*
D03*
D39*
Y605950D02*
D03*
D40*
X1092200Y855980D02*
D03*
X1084580Y824230D02*
D03*
X438150Y849630D02*
D03*
X948570Y726440D02*
D03*
X976630Y614680D02*
D03*
X1064260Y356870D02*
D03*
X1043940Y342900D02*
D03*
X981710Y590550D02*
D03*
X1008380Y533400D02*
D03*
X414020Y491490D02*
D03*
X1004570Y601980D02*
D03*
X763270Y582930D02*
D03*
X1000760Y624840D02*
D03*
X881380Y567690D02*
D03*
X889000Y628650D02*
D03*
X891540Y678180D02*
D03*
X640080Y868680D02*
D03*
X1070610D02*
D03*
X639445Y929005D02*
D03*
X1056640Y896620D02*
D03*
X675640Y960120D02*
D03*
X1040130Y941070D02*
D03*
X690880Y985520D02*
D03*
X988060Y976630D02*
D03*
X717550Y718820D02*
D03*
X1002030Y703580D02*
D03*
X741680Y939800D02*
D03*
X975360Y924560D02*
D03*
X541020Y765810D02*
D03*
X999490Y585470D02*
D03*
X560070Y781050D02*
D03*
X949960Y754380D02*
D03*
X946150Y802640D02*
D03*
X599440D02*
D03*
X472440Y552450D02*
D03*
X1005840Y735330D02*
D03*
X976630Y635000D02*
D03*
X1028700Y748030D02*
D03*
X1007110Y676910D02*
D03*
X902970Y556260D02*
D03*
D41*
X407270Y1024610D02*
D03*
X1157270D02*
D03*
Y714610D02*
D03*
X407270D02*
D03*
M02*
